<svg id="图层_1" data-name="图层 1" xmlns="http://www.w3.org/2000/svg" viewBox="0 0 185.9 60.1"><defs><style>.cls-1{fill:#fff;}</style></defs><polygon class="cls-1" points="83.9 16.4 88.2 16.4 83.5 33.9 79.1 33.9 83.9 16.4 83.9 16.4"/><path class="cls-1" d="M98.5,29.5a1.3,1.3,0,0,0,.8-.3,1.6,1.6,0,0,0,.6-.8.8.8,0,0,0-.2-.7.5.5,0,0,0-.6-.4H92.5A4.1,4.1,0,0,1,89,25.7a4.6,4.6,0,0,1-.5-3.9A6.8,6.8,0,0,1,91.2,18a6.6,6.6,0,0,1,4.3-1.6h12l-1.2,4.4h-12a1.6,1.6,0,0,0-.9.3,1.5,1.5,0,0,0-.5.7.8.8,0,0,0,.1.8.9.9,0,0,0,.7.3h6.5a4.2,4.2,0,0,1,3.5,1.6,4.4,4.4,0,0,1,.5,3.9,7.7,7.7,0,0,1-2.6,3.9,6.8,6.8,0,0,1-4.3,1.6H85.2l1.2-4.4Z"/><path class="cls-1" d="M120.6,28.9a2.7,2.7,0,0,0,1-1.6l3-10.9H129l-3,10.9a9.3,9.3,0,0,1-3.2,4.7,8,8,0,0,1-5.2,1.9h-6.5a5,5,0,0,1-4.2-1.9,5.4,5.4,0,0,1-.6-4.7l3-10.9h4.4l-3,10.9a1.8,1.8,0,0,0,.2,1.6,1.7,1.7,0,0,0,1.4.6h6.5a3.2,3.2,0,0,0,1.8-.6Z"/><path class="cls-1" d="M133.7,21.8l-3.3,12.1H126L130.3,18a2,2,0,0,1,2.1-1.6h2.2c1.1,0,2.2,1.1,3.5,3.3l4.7,8.8,3.3-12.1h4.4l-4.4,15.9a2.1,2.1,0,0,1-2.1,1.6h-2.1c-1.1,0-2.3-1.1-3.5-3.3l-4.7-8.8Z"/><polygon class="cls-1" points="152.2 16.4 156.6 16.4 151.8 33.9 147.4 33.9 152.2 16.4 152.2 16.4"/><path class="cls-1" d="M175.9,16.4l-1.2,4.4h-8.8a5.6,5.6,0,0,0-3.4,1.2,5.8,5.8,0,0,0-2.1,3.1,3.3,3.3,0,0,0,.4,3.1,3,3,0,0,0,2.7,1.3h8.8l-1.2,4.4h-8.7a6.3,6.3,0,0,1-5.5-2.6,6.6,6.6,0,0,1-.9-6.2,11.7,11.7,0,0,1,4.2-6.2,11.1,11.1,0,0,1,6.9-2.5Z"/><path class="cls-1" d="M79.8,22.9a5.5,5.5,0,0,0-.7-4.6A4.7,4.7,0,0,0,75,16.4H61.8l-1.2,4.4H73.8a1.7,1.7,0,0,1,1.4.6,1.9,1.9,0,0,1,.2,1.5,2.6,2.6,0,0,1-1.1,1.6,2.7,2.7,0,0,1-1.7.6H59.5l-2.4,8.8h4.3l1.2-4.4h7.2l2.6,4.4h5.5l-3.1-5.2a8.7,8.7,0,0,0,1.8-1.1,8.9,8.9,0,0,0,3.2-4.7Z"/><polygon class="cls-1" points="71.6 38 76.5 38 76.5 39 74.7 39 74.7 44.7 73.4 44.7 73.4 39 71.6 39 71.6 38 71.6 38"/><polygon class="cls-1" points="80.3 38 84.5 38 84.5 39 81.6 39 81.6 40.8 84.3 40.8 84.3 41.7 81.6 41.7 81.6 43.7 84.6 43.7 84.6 44.7 80.3 44.7 80.3 38 80.3 38"/><path class="cls-1" d="M94,38.2v1.1h-.1l-1.5-.3a2.4,2.4,0,0,0-1.8.7,2.4,2.4,0,0,0-.6,1.8,2.4,2.4,0,0,0,.7,1.8,2.4,2.4,0,0,0,1.8.6l1.1-.2.4-.2v1.1h-.3l-1.4.3a3.7,3.7,0,0,1-2.8-1,3,3,0,0,1-1-2.5,3.4,3.4,0,0,1,1-2.6,4,4,0,0,1,2.7-.9,3.9,3.9,0,0,1,1.4.2Z"/><polygon class="cls-1" points="98 38 99.3 38 99.3 40.7 102 40.7 102 38 103.3 38 103.3 44.7 102 44.7 102 41.8 99.3 41.8 99.3 44.7 98 44.7 98 38 98 38"/><path class="cls-1" d="M107.8,38h1.6l2.5,4.7a.8.8,0,0,1,.2.5l.3.7a2.5,2.5,0,0,1-.1-.8,2,2,0,0,1-.1-.7V38h1.2v6.7h-1.6l-2.6-4.8c-.1-.1-.1-.3-.2-.4s-.1-.5-.2-.7a3.8,3.8,0,0,1,.1,1,1.8,1.8,0,0,1,.1.6v4.3h-1.2V38Z"/><path class="cls-1" d="M120.8,37.9a3,3,0,0,1,2.3.9,3.6,3.6,0,0,1,.9,2.6,3.3,3.3,0,0,1-.9,2.5,2.6,2.6,0,0,1-2.3,1,3,3,0,0,1-2.4-1,3.3,3.3,0,0,1-.8-2.5,3.5,3.5,0,0,1,.8-2.6,3.2,3.2,0,0,1,2.4-.9Zm0,1h0a1.8,1.8,0,0,0-1.4.6,3.5,3.5,0,0,0-.5,1.8,3.6,3.6,0,0,0,.5,1.9,1.8,1.8,0,0,0,1.4.6,1.6,1.6,0,0,0,1.3-.6,2.9,2.9,0,0,0,.5-1.9,2.7,2.7,0,0,0-.5-1.8,1.6,1.6,0,0,0-1.3-.6Z"/><polygon class="cls-1" points="128.1 38 129.5 38 129.5 43.7 132.2 43.7 132.2 44.7 128.1 44.7 128.1 38 128.1 38"/><path class="cls-1" d="M138.5,37.9a3.2,3.2,0,0,1,2.4.9,3.5,3.5,0,0,1,.8,2.6,3.3,3.3,0,0,1-.8,2.5,3,3,0,0,1-2.4,1,2.8,2.8,0,0,1-2.3-1,3.3,3.3,0,0,1-.9-2.5,3.6,3.6,0,0,1,.9-2.6,3,3,0,0,1,2.3-.9Zm0,1h0a1.6,1.6,0,0,0-1.3.6,3.5,3.5,0,0,0-.5,1.8,3.6,3.6,0,0,0,.5,1.9,1.6,1.6,0,0,0,1.3.6,1.8,1.8,0,0,0,1.4-.6,3.6,3.6,0,0,0,.5-1.9,3.5,3.5,0,0,0-.5-1.8,1.8,1.8,0,0,0-1.4-.6Z"/><path class="cls-1" d="M151.4,38.2v1.1h-.2l-1.5-.3a2.5,2.5,0,0,0-1.9.7,2.7,2.7,0,0,0,0,3.6,2.4,2.4,0,0,0,1.8.6h.7a.1.1,0,0,0,.1-.1V41.9h-1.2V41h2.5v3.4l-1.2.4h-1a3.7,3.7,0,0,1-2.8-1,3.4,3.4,0,0,1-1-2.5,3.3,3.3,0,0,1,1.1-2.6,4.1,4.1,0,0,1,2.8-.9,4.2,4.2,0,0,1,1.4.2Z"/><polygon class="cls-1" points="154.9 38 156.4 38 158.1 41 159.7 38 161.2 38 158.7 42.1 158.7 44.7 157.4 44.7 157.4 42.1 154.9 38 154.9 38"/><polygon class="cls-1" points="47.8 19.4 38.2 35 51.4 50.5 37.6 50.5 37.3 50.2 24.1 35.5 47.8 19.4 47.8 19.4"/><polygon class="cls-1" points="22.9 23.9 14.9 52.9 9.2 8.3 47 17.6 22.9 23.9 22.9 23.9"/></svg>