<svg id="图层_1" data-name="图层 1" xmlns="http://www.w3.org/2000/svg" viewBox="0 0 77.1 60.1"><defs><style>.cls-1{fill:#fff;}</style></defs><polygon class="cls-1" points="22.1 37.2 24.4 37.2 21.9 46.5 19.6 46.5 22.1 37.2 22.1 37.2"/><path class="cls-1" d="M29.8,44.1h.5l.3-.4c0-.2,0-.3-.1-.4a.5.5,0,0,0-.4-.2H26.7a2,2,0,0,1-1.8-.9,2.2,2.2,0,0,1-.3-2,3.5,3.5,0,0,1,1.4-2,3.5,3.5,0,0,1,2.3-.9h6.3L34,39.5H27.6l-.4.2c-.2.1-.3.2-.3.4s0,.3,0,.4l.4.2h3.5a2.2,2.2,0,0,1,1.8.8,2.5,2.5,0,0,1,.3,2.1,3.5,3.5,0,0,1-1.4,2,3.5,3.5,0,0,1-2.3.9H22.8l.7-2.4Z"/><path class="cls-1" d="M41.5,43.8A1,1,0,0,0,42,43l1.6-5.8h2.3L44.4,43a4.6,4.6,0,0,1-1.7,2.4,4.5,4.5,0,0,1-2.8,1.1H36.5a2.5,2.5,0,0,1-2.2-1.1A2.5,2.5,0,0,1,34,43l1.5-5.8h2.3L36.3,43a.8.8,0,0,0,.1.8.8.8,0,0,0,.7.3h3.5a1.6,1.6,0,0,0,.9-.3Z"/><path class="cls-1" d="M48.4,40.1l-1.7,6.4H44.3l2.3-8.4c.2-.6.5-.9,1.1-.9h1.2c.6,0,1.2.6,1.8,1.7l2.5,4.7,1.7-6.4h2.4L55,45.6a1.1,1.1,0,0,1-1.1.9H52.7q-.9,0-1.8-1.8l-2.5-4.6Z"/><polygon class="cls-1" points="58.2 37.2 60.5 37.2 58 46.5 55.7 46.5 58.2 37.2 58.2 37.2"/><path class="cls-1" d="M70.7,37.2,70,39.5H65.4a3.4,3.4,0,0,0-1.8.7,3.3,3.3,0,0,0-1.1,1.6,2,2,0,0,0,.2,1.7,1.8,1.8,0,0,0,1.5.6h4.6l-.7,2.4H63.5a3.6,3.6,0,0,1-2.9-1.4,3.7,3.7,0,0,1-.4-3.3,6.2,6.2,0,0,1,2.2-3.2A6.1,6.1,0,0,1,66,37.2Z"/><path class="cls-1" d="M20,40.7a3,3,0,0,0-.4-2.5,2.7,2.7,0,0,0-2.2-1H10.5l-.6,2.3h6.9a.7.7,0,0,1,.7.4,1.1,1.1,0,0,1,.2.8,1.6,1.6,0,0,1-.6.8,1.6,1.6,0,0,1-.9.3H9.3L8,46.5h2.3l.6-2.4h3.8l1.4,2.4H19l-1.7-2.8a2.1,2.1,0,0,0,1-.6A5.1,5.1,0,0,0,20,40.7Z"/><polygon class="cls-1" points="15.9 53 18.5 53 18.5 53.5 17.6 53.5 17.6 56.5 16.9 56.5 16.9 53.5 15.9 53.5 15.9 53 15.9 53"/><polygon class="cls-1" points="20.5 53 22.6 53 22.6 53.5 21.2 53.5 21.2 54.4 22.6 54.4 22.6 54.9 21.2 54.9 21.2 56 22.7 56 22.7 56.5 20.5 56.5 20.5 53 20.5 53"/><path class="cls-1" d="M27.6,53.1v.5h-.1l-.8-.2a1.2,1.2,0,0,0-1.2,1.4,1.6,1.6,0,0,0,.3.9,1.7,1.7,0,0,0,1,.3h.8v.6h-.2l-.7.2a2,2,0,0,1-1.4-.5,1.8,1.8,0,0,1-.6-1.3,1.8,1.8,0,0,1,.6-1.4,2,2,0,0,1,1.4-.5h.9Z"/><polygon class="cls-1" points="29.7 53 30.4 53 30.4 54.4 31.8 54.4 31.8 53 32.5 53 32.5 56.5 31.8 56.5 31.8 54.9 30.4 54.9 30.4 56.5 29.7 56.5 29.7 53 29.7 53"/><path class="cls-1" d="M34.8,53h.9L37,55.4a.4.4,0,0,0,.1.3c0,.1.1.2.1.4a.7.7,0,0,0-.1-.5V53h.7v3.5h-.9L35.5,54a24725056409665.6,24725056409665.6,0,0,1-.2-.6,1.1,1.1,0,0,1,.1.5v2.6h-.6V53Z"/><path class="cls-1" d="M41.6,52.9a1.7,1.7,0,0,1,1.2.5,1.9,1.9,0,0,1,.5,1.3,2.2,2.2,0,0,1-.5,1.4,1.7,1.7,0,0,1-1.2.5,1.5,1.5,0,0,1-1.2-.5,2.2,2.2,0,0,1-.5-1.4,1.9,1.9,0,0,1,.5-1.3,1.5,1.5,0,0,1,1.2-.5Zm0,.5h0a.8.8,0,0,0-.7.4,1.2,1.2,0,0,0-.3.9,1.7,1.7,0,0,0,.3,1,1,1,0,0,0,1.4,0,1.6,1.6,0,0,0,.2-1c0-.4,0-.7-.2-.9a.8.8,0,0,0-.7-.4Z"/><polygon class="cls-1" points="45.4 53 46.1 53 46.1 56 47.5 56 47.5 56.5 45.4 56.5 45.4 53 45.4 53"/><path class="cls-1" d="M50.8,52.9a1.7,1.7,0,0,1,1.3.5,1.8,1.8,0,0,1,.4,1.3,2.1,2.1,0,0,1-.4,1.4,1.7,1.7,0,0,1-1.3.5,1.7,1.7,0,0,1-1.2-.5,2.1,2.1,0,0,1-.4-1.4,1.8,1.8,0,0,1,.4-1.3,1.7,1.7,0,0,1,1.2-.5Zm0,.5h0a.6.6,0,0,0-.6.4,1.2,1.2,0,0,0-.3.9,3,3,0,0,0,.2,1,1.1,1.1,0,0,0,.7.3,1.1,1.1,0,0,0,.8-.3,3,3,0,0,0,.2-1,2,2,0,0,0-.2-.9.9.9,0,0,0-.8-.4Z"/><path class="cls-1" d="M57.6,53.1v.5h-.1l-.8-.2a1.8,1.8,0,0,0-1,.4,1.5,1.5,0,0,0-.3,1A1.1,1.1,0,0,0,56.5,56H57V55h-.6v-.5h1.3v1.8l-.7.2h-.5a2,2,0,0,1-1.4-.5,1.8,1.8,0,0,1-.6-1.4,1.6,1.6,0,0,1,.6-1.3,2.3,2.3,0,0,1,1.5-.5h1Z"/><polygon class="cls-1" points="59.4 53 60.2 53 61 54.6 61.9 53 62.7 53 61.4 55.1 61.4 56.5 60.7 56.5 60.7 55.1 59.4 53 59.4 53"/><polygon class="cls-1" points="48 11.3 43 19.4 49.9 27.6 42.7 27.6 42.6 27.4 35.6 19.7 48 11.3 48 11.3"/><polygon class="cls-1" points="35 13.6 30.7 28.9 27.8 5.4 47.6 10.3 35 13.6 35 13.6"/></svg>