<svg id="图层_1" data-name="图层 1" xmlns="http://www.w3.org/2000/svg" viewBox="0 0 340.2 60.1"><defs><style>.cls-1{fill:#155698;}.cls-2{fill:#3f3d3c;}.cls-3{fill:#423e3e;}.cls-4{fill:#005faf;}</style></defs><path class="cls-1" d="M62.7,18.6l3.1,2.3-1.6,1.9c-.8-.8-1.8-1.6-3-2.6Zm.8,4.9,2.2.9c-.8,2.5-1.5,4.8-2,6.6l-2.4-.8C62,28.4,62.7,26.2,63.5,23.5Zm-.6-9.6,3.3,2.3-1.6,1.7-3.2-2.4ZM78.2,24.7H74.1a11,11,0,0,0,4.5,3.1l-1.4,2.3a14.1,14.1,0,0,1-4-3.7V31H70.9V26.3a22.3,22.3,0,0,1-4.1,4l-1.4-2.1a17,17,0,0,0,4.5-3.5H66.1V22.6h4.8V20.4h2.3v2.2h5Zm-6.6-5.6L67.7,22l-1.4-1.6a24.7,24.7,0,0,0,3.8-2.8Zm-5.3-.5V14.8H77.8v3.8H75.6V16.8h-7v1.8Zm6.3.5L74,17.6l3.9,2.8-1.5,1.7C75.1,21,73.9,20,72.6,19.1Z"/><path class="cls-1" d="M81.1,28.3l-.5-2.6,1.9-.4V20H80.9V17.8h1.6V14.1h2.3v3.7h1.7V20H84.8v4.8l1.7-.5v2.2a9.4,9.4,0,0,0,.7-3.7V14.2h2.3V23c0,3.4-.9,6.2-2.8,8.2l-2.1-1.6a7.5,7.5,0,0,0,1.8-2.8Zm10-13.5h2.2V29.9H91.1Zm3.8-.6h2.3V30.9H94.9Z"/><path class="cls-1" d="M104,29.2h-2.4V20.3h5.8v-2h-7V16.1h6.8a8.7,8.7,0,0,0-.7-1.7l2.8-.6a15.5,15.5,0,0,1,.8,2.3H117v2.2h-7.1v2h6.2v6.2a2.5,2.5,0,0,1-.2,1.3,2.2,2.2,0,0,1-.7.9,2.1,2.1,0,0,1-1.1.4l-2.9.2-.6-2.3h2a1.1,1.1,0,0,0,1.2-1.2V22.5h-3.9v8.6h-2.5V22.5H104Z"/><path class="cls-1" d="M128.5,28.5v1.8a29.1,29.1,0,0,0-4.6,1l-.7-1.4a1.5,1.5,0,0,0,.5-1.2v-2h-.9a11.7,11.7,0,0,1-1.7,4.6l-1.8-1.9a7.2,7.2,0,0,0,1.4-4.6V21.1h15.4v1.4H122.9v2.8h13.3v1.4h-2.4l.9,1-1.9.9a22.8,22.8,0,0,0,3.9.6l-1,2a11.3,11.3,0,0,1-8.7-4.5h-1.3V29Zm-7-14h13.3v5.8H121.5Zm2.3,8.8h11.6v1.2H123.8Zm8.7-7.3h-8.7v.7h8.7Zm0,2.8V18h-8.7v.8Zm.4,7.9h-3.5a8.3,8.3,0,0,0,1.5,1.1Z"/><path class="cls-1" d="M143,13.9c0,1.1,0,2.2-.1,3.3h3.3V27.7c0,.7.3,1,.9,1h5.6c.6,0,1-.2,1.1-.7a9.9,9.9,0,0,0,.2-1.7h-4.4v.8h-2.1V14.6h7.2V26.3l1.4.6a18.4,18.4,0,0,1-.5,2.5,2.2,2.2,0,0,1-2.3,1.3h-6.8a2.1,2.1,0,0,1-2.4-2.3V19.3h-1.2q.2,8.7-2.4,12a15.4,15.4,0,0,0-1.9-1.7c1.5-1.9,2.2-5.3,2.2-10.3h-1.7V17.2h1.7V13.9Zm9.6,2.7h-3v2.8h3Zm0,7.7v-3h-3v3Z"/><path class="cls-1" d="M175.5,28.5c-.4.9-.6,1.7-.9,2.3h-9.1a6.8,6.8,0,0,1-2.7-.5,4.3,4.3,0,0,1-1.7-1.2l-1.9,2.2-1-2.7,1.6-1.5V22.3h-1.5V20H162v7.1c.7,1,1.9,1.4,3.7,1.4h9.8Zm-15-14.6a38.3,38.3,0,0,1,2.4,3.1l-2.1,1.4-2.2-3.3Zm14,.6v2l-3.7,2h3.7V26a2.5,2.5,0,0,1-.3,1.3,2.1,2.1,0,0,1-1,.6,8.7,8.7,0,0,1-2.6.1,13.6,13.6,0,0,0-.4-1.7h1.4c.5,0,.7-.3.7-.8v-.3h-2.4v2.7h-2V25.2h-2.3v2.7h-2.2V18.5h3.3l-1.9-1.2.9-1h-2.5V14.5Zm-8.9,6.6h2.3v-1h-2.3Zm0,2.6h2.3V22.6h-2.3Zm5.9-7.4h-5.2l2.5,1.4Zm.8,3.8h-2.4v1h2.4Zm-2.4,3.6h2.4V22.6h-2.4Z"/><path class="cls-1" d="M177.6,25.6a17.7,17.7,0,0,0,2.5-4.4h-2.4V18.9h2.5V17h-2.1c-.1-.7-.3-1.4-.4-2l6.6-.7.7,2-2.5.3v2.2h2.2v2.3h-2.2v1.4l.8-.7,2.1,2L184,25.2l-1.5-1.7V31h-2.3V25.1a19.2,19.2,0,0,1-1.8,3.2Zm6.7-.6,5.6-.5V13.9h2.5V24.3l2.3-.2.2,2.2-2.5.2V31h-2.5V26.7l-5.3.5Zm1.9-5.4a17.6,17.6,0,0,1,3,2.4l-1.6,1.6-2.8-2.5Zm.6-4.5,3,2.5-1.6,1.6a34.5,34.5,0,0,0-2.8-2.6Z"/><path class="cls-1" d="M197.2,16.9h1.9v-3h2.2v3h1.5v2.3h-1.5v2.6l1.6-.3c0,1-.1,1.7-.1,2.3l-1.5.3v4.6a2.3,2.3,0,0,1-.5,1.7c-.4.4-1.4.6-3.1.6a20.7,20.7,0,0,0-.6-2.4h1.2l.6-.2a1.4,1.4,0,0,0,.2-.7V24.7l-1.9.5-.2-2.5,2.1-.4V19.2h-1.9Zm16.7,1.6h-4.3v1.9h3.8v2.1a12.5,12.5,0,0,1-3.1,4.5,15.9,15.9,0,0,0,4,1.6L212.9,31a16.1,16.1,0,0,1-4.5-2.4,20.5,20.5,0,0,1-4.9,2.5l-1.4-2.3a19.2,19.2,0,0,0,4.3-1.8,20.8,20.8,0,0,1-2.7-3.2l2-1.2a14.8,14.8,0,0,0,2.6,3,8.4,8.4,0,0,0,2.4-3h-7.4V20.4h3.8V18.5h-3.8V16.4h3.8V13.9h2.5v2.5h4.3Z"/><path class="cls-1" d="M232.9,21.1v2.1a14.9,14.9,0,0,1-2.6,4.1,16.6,16.6,0,0,0,3.3,1.5,16.4,16.4,0,0,0-1.2,2.2,13.1,13.1,0,0,1-3.9-2.2,18.2,18.2,0,0,1-3.9,2.3l-1.4-2.2a2.1,2.1,0,0,1-.4,1.2,1.4,1.4,0,0,1-1.1.5l-2.1.2a9.6,9.6,0,0,0-.7-2.3h1.2c.6,0,.9-.4.9-1v-2h-1.7a13.5,13.5,0,0,1-1.4,5.5L216.3,29a10.6,10.6,0,0,0,.8-3.4c.1-1.2.2-3,.2-5.2V14.6h5.9V28.9a18.9,18.9,0,0,0,3.6-1.6,15.5,15.5,0,0,1-2.4-2.8l1.8-1.2a11.8,11.8,0,0,0,2.3,2.7,8.3,8.3,0,0,0,1.9-2.7h-6.5V21.1Zm-13.6,2.4H221V21.2h-1.6C219.4,21.6,219.4,22.4,219.3,23.5Zm1.7-6.7h-1.6v2.3H221Zm11.6,1.3h1.1l-.4,2.1h-1.9c-1.1,0-1.7-.6-1.7-1.8V16.7h-2.5a8.3,8.3,0,0,1-.4,2.6,4.3,4.3,0,0,1-1.4,1.6l-1.7-1.4a2.5,2.5,0,0,0,1.2-1.6,21.6,21.6,0,0,0,.2-3.3h6.7v2.7A.7.7,0,0,0,232.6,18.1Z"/><path class="cls-1" d="M239.1,14l2.4.6a22.4,22.4,0,0,1-1.4,3.9V30.9h-2.3V23.1L236.5,25c-.1-.8-.4-1.8-.7-3.2A30.5,30.5,0,0,0,239.1,14Zm10.3.3a12.9,12.9,0,0,0,3.6,5.6l-1,2.7-.7-.7-.2,6a4.3,4.3,0,0,1-.6,1.9,2.6,2.6,0,0,1-1.3.8h-3.1c-.2-.9-.4-1.8-.6-2.5h1.8a1.5,1.5,0,0,0,1-.3c.2-.1.4-.6.4-1.4V22.9h-2.7c0,3.7-1.3,6.5-3.9,8.1a15.1,15.1,0,0,0-1.8-1.8c2.1-1.2,3.2-3.4,3.2-6.3h-1.1V21.8l-.9,1a17.4,17.4,0,0,0-1.1-2.5,12.8,12.8,0,0,0,3.6-6.1l2.3.6a17.1,17.1,0,0,1-2.9,5.9h6.7a16.5,16.5,0,0,1-3-5.9Z"/><path class="cls-1" d="M260.7,31h-2.5V23.3l-2.5,2.2-.6-2.7a17.4,17.4,0,0,0,4.2-4.9h-4V15.7h5.1a14.6,14.6,0,0,0,.7-1.9l2.8.4-.6,1.5h9v2.2H262.2l-.7,1.2h9.1v9.5a1.9,1.9,0,0,1-.5,1.6,1.7,1.7,0,0,1-1.4.7H265a10.5,10.5,0,0,0-.6-2.4h2.7c.7,0,1-.3,1-1v-.3h-7.4Zm7.4-9.8h-7.4v1.2h7.4Zm-7.4,4.4h7.4V24.3h-7.4Z"/><path class="cls-1" d="M279.6,21a6.4,6.4,0,0,1,1.7,4.4c0,1.9-1.1,2.8-3.4,2.8a18.6,18.6,0,0,0-.5-2.7h.6c.7,0,1-.2,1-.8a5.6,5.6,0,0,0-1.5-3.5c.5-1.5.9-3,1.3-4.6h-1.4V31.1h-2.2V14.6H281v1.7Zm12.3,7.5a13.6,13.6,0,0,0-1.3,2.4,9.8,9.8,0,0,1-4-3v1.9a29.5,29.5,0,0,0-4.6,1.3l-1-1.8a2.4,2.4,0,0,0,.6-1.8V14.6h9.2v9h-.5l1.5,1.8L289.1,27A8.2,8.2,0,0,0,291.9,28.5Zm-3.4-11.8h-4.6v1.4h4.6Zm0,4.8V20.1h-4.6v1.4Zm-3.8,2.1h-.8v4.5l2.4-.6A13.8,13.8,0,0,1,284.7,23.6Zm3.1,1.9a21.1,21.1,0,0,0,2.3-1.9h-3.2A5.6,5.6,0,0,0,287.8,25.5Z"/><path class="cls-1" d="M298.9,14.3l2.4,1a24.7,24.7,0,0,1-5.5,7.7L294,21A20.4,20.4,0,0,0,298.9,14.3Zm6.7,8.7c1.8,2.2,3.4,4.4,4.9,6.5l-2.3,1.6-.9-1.5-9.1.5-1.8.3-1.1-2.3a13.5,13.5,0,0,0,3.1-3.6,55.3,55.3,0,0,0,3-4.8l2.6,1.1a51.1,51.1,0,0,1-4.9,6.7l6.6-.2-2.2-3Zm.6-8.8a20.5,20.5,0,0,0,5,6.5l-1.9,2.1a23.5,23.5,0,0,1-5.4-7.6Z"/><path class="cls-1" d="M313.6,18.1H326v2.2H313.6Zm15.9,9.4a3.8,3.8,0,0,1-.5,2.2,2.4,2.4,0,0,1-1.4,1,27.5,27.5,0,0,1-3.9.2,10.5,10.5,0,0,0-.6-2.4h2.5c1,0,1.5-.6,1.5-1.7V16.7H314.4V14.6h15.1Zm-5-5.8V28h-7v1.1H315V21.7Zm-7,2.2v1.9H322V23.9Z"/><path class="cls-2" d="M76.6,47.5c.1-.6.3-1.2.4-1.7a.4.4,0,0,0,.1-.3c.2-.6.2-.6.8-.6h6.3a.9.9,0,0,0,.8-.4.6.6,0,0,0,.1-.6.5.5,0,0,0-.5-.3H80.7a2.7,2.7,0,0,1-1.2-.3,2.4,2.4,0,0,1-1.1-2.6,4.6,4.6,0,0,1,3.2-3.4h8c-.1.6-.3,1.2-.4,1.8s-.1.6-.3.7-.6.1-.8.1H81.9a.9.9,0,0,0-.8.5c-.2.4,0,.7.5.7h3.9a2.3,2.3,0,0,1,2.3,2.7,4.5,4.5,0,0,1-3.6,3.6H76.6Z"/><path class="cls-2" d="M110.3,44.2l1.9-7h2.6a9.3,9.3,0,0,0-.4,1.3L112.6,45a8.3,8.3,0,0,1-.4,1.5,1.2,1.2,0,0,1-1.1,1h-1.4a2,2,0,0,1-1.2-.8,17.6,17.6,0,0,1-1.4-2.3c-.7-1.2-1.4-2.5-2-3.8s-.1-.1-.2-.2a15.5,15.5,0,0,1-.4,1.5c-.5,1.8-.9,3.5-1.4,5.2s-.2.4-.5.4h-2.2a18,18,0,0,0,.5-1.9l2.1-7.4a1.1,1.1,0,0,1,1.1-1h1.4a1.2,1.2,0,0,1,1.1.7,12.7,12.7,0,0,1,1.3,1.9l2.3,4.3Z"/><path class="cls-2" d="M63.1,39.6l.6-2.4h8.2l1.3.2a1.3,1.3,0,0,1,1,1.5,16.3,16.3,0,0,1-.7,3A2,2,0,0,1,72.2,43h-.3a1.4,1.4,0,0,1,.8,1.7c-.2.8-.5,1.5-.7,2.3l-.2.3H69.4l.6-2.1c.2-.6,0-.8-.7-.8H64.6c-.2,0-.3.1-.4.3s-.4,1.6-.7,2.5-.1.2-.2.2H61a3.6,3.6,0,0,1,.2-1l1.2-4.2c0-.2.1-.3.4-.3H70a1,1,0,0,0,1.2-.9,1.4,1.4,0,0,1,.2-.6.5.5,0,0,0-.5-.7H63.1Z"/><path class="cls-2" d="M93.2,37.3c-.2.6-.3,1.3-.5,2l-1.2,4.4a.9.9,0,0,0,.9,1.2h3.9a1.8,1.8,0,0,0,1.6-1.4c.6-2.1,1.1-4.1,1.7-6.1a.2.2,0,0,1,.2-.2h2.4l-.3,1.2c-.5,1.7-.9,3.5-1.5,5.3a5.2,5.2,0,0,1-4,3.7H91.7a2.7,2.7,0,0,1-2.9-3.2,11.7,11.7,0,0,1,.5-2c.4-1.6.8-3.2,1.3-4.9l.2-.2h2.4Z"/><path class="cls-2" d="M129.6,37.2l-.6,2.4c-.1.2-.2.2-.3.2h-4.8a3.4,3.4,0,0,0-3.4,3.1,1.8,1.8,0,0,0,1.8,2h5.2c0,.2-.1.5-.1.7s-.3,1.1-.5,1.7-.2.2-.3.2h-5.4a3.4,3.4,0,0,1-3.3-2.9,5.3,5.3,0,0,1,1-4.2,7,7,0,0,1,4.9-3.1h5.8Z"/><path class="cls-2" d="M113,47.5c.9-3.5,1.9-6.9,2.8-10.3h2.6l-.3,1.1-2.4,8.6c-.1.6-.1.6-.7.6h-2Z"/><path class="cls-2" d="M78.3,37.2,78,38.6c-.6,2-1.1,4-1.6,6s-.5,1.7-.8,2.6a.3.3,0,0,1-.3.3H73c0-.2,0-.3.1-.4.6-2.4,1.3-4.9,2-7.3l.6-2.3c0-.2.1-.3.4-.3h2.2Z"/><path class="cls-2" d="M156.4,44.7c-.2.8-.5,1.6-.7,2.3s-.3.3-.5.3h-10c-.7,0-.9-.2-.7-.9l2.1-7.6a1.8,1.8,0,0,1,2.1-1.6h9.1c.6,0,.7.1.5.6s-.3.9-.4,1.4-.3.6-.8.6h-7.3a1.1,1.1,0,0,0-.8.3,1.1,1.1,0,0,0-.2.5.5.5,0,0,0,.5.3,4.1,4.1,0,0,0,1.1,0h6.4c.6,0,.6.1.5.7a5.7,5.7,0,0,0-.4,1.4.7.7,0,0,1-.7.6h-8a.6.6,0,1,0,.2,1.1h8Z"/><path class="cls-2" d="M239.1,39.8h-3.2a1.8,1.8,0,0,0-2.1,1.5l-.6,2.2c-.1.7.2,1.2.9,1.2h4.5a.7.7,0,0,0,.7-.7c-.1-.4-.4-.4-.7-.4h-1.3c-.3,0-.4-.1-.3-.4a14.6,14.6,0,0,1,.5-2l.4-.2a16,16,0,0,1,3.1,0,1.1,1.1,0,0,1,1.2,1.3A6.8,6.8,0,0,1,241,46a3.5,3.5,0,0,1-2.7,1.3h-5.1a2.7,2.7,0,0,1-2.7-3.4l.9-3.2a5.2,5.2,0,0,1,4.9-3.5h6.9c.6,0,.6,0,.4.6s-.3,1-.4,1.6a.5.5,0,0,1-.6.4Z"/><path class="cls-2" d="M184.4,37.3c1.2-.3,1.8.3,2.3,1.2l2.6,4.5c0,.1.1.3.1.4l.3.2.3-.3c.3-1,.6-2.1.8-3.1a23.3,23.3,0,0,0,.7-2.5c.1-.4.3-.5.7-.5h1.6c.4,0,.5.1.4.5-.6,2.1-1.2,4.1-1.7,6.2a20.2,20.2,0,0,0-.7,2.3c-.2.8-.5,1.1-1.3,1.1h-1.2a1.7,1.7,0,0,1-1.4-1c-.6-.8-1-1.6-1.5-2.4l-1.5-2.7c0-.2-.1-.2-.2-.3s-.3.2-.3.3l-1.5,5.4c-.2.7-.2.7-.8.7h-1.4c-.6,0-.6-.1-.5-.6s.9-3.2,1.4-4.8l.9-3.3c.3-1.2.5-1.3,1.7-1.3Z"/><path class="cls-2" d="M225.8,37.2h2a2.7,2.7,0,0,1,2.6,3.5l-.8,2.9a5.1,5.1,0,0,1-4.8,3.7H221a2.8,2.8,0,0,1-2.9-3.4,21.5,21.5,0,0,1,1.1-3.6,5.3,5.3,0,0,1,4.8-3.1Zm-.8,2.6h-1.7a1.7,1.7,0,0,0-1.8,1.4l-.6,2.1c-.2,1,.1,1.4,1.1,1.4h3.3a1.6,1.6,0,0,0,1.7-1.3,21.7,21.7,0,0,0,.7-2.4.9.9,0,0,0-.9-1.2Z"/><path class="cls-2" d="M201.1,37.2H203a2.6,2.6,0,0,1,2.7,3.1,16.8,16.8,0,0,1-1.1,4,4.9,4.9,0,0,1-4.6,3h-3.8a2.6,2.6,0,0,1-2.8-3.1,14.9,14.9,0,0,1,1.1-4,5.2,5.2,0,0,1,4.9-3Zm-2.2,7.5h1.7a1.6,1.6,0,0,0,1.7-1.2,21.7,21.7,0,0,1,.7-2.4.9.9,0,0,0-1-1.3h-3.5a1.6,1.6,0,0,0-1.7,1.2c-.2.9-.5,1.7-.7,2.5s.2,1.2.9,1.2Z"/><path class="cls-2" d="M175.2,40.9h2.1c.8,0,1-.1,1.2-.9a15.5,15.5,0,0,0,.6-2.3.7.7,0,0,1,.7-.5h1.6c.5,0,.5.1.4.6l-.9,3.2c-.5,1.9-1.1,3.8-1.6,5.8-.1.4-.3.5-.7.5h-1.5c-.5,0-.6-.1-.4-.5l.6-2.4c.2-.7.1-.8-.6-.8h-4.3c-.8-.1-1.1.1-1.3.8l-.6,2.4c-.1.4-.3.5-.7.5h-1.4c-.5,0-.6-.1-.5-.6s.5-2,.8-2.9,1.1-4,1.6-6a.7.7,0,0,1,.8-.6h1.5c.5,0,.5.1.4.5a21.7,21.7,0,0,1-.7,2.4c-.1.7,0,.8.7.8A16.1,16.1,0,0,0,175.2,40.9Z"/><path class="cls-2" d="M163.9,47.2h-2.8a3.6,3.6,0,0,1-3.2-4.4,6.1,6.1,0,0,1,3.3-4.6,6.2,6.2,0,0,1,3.5-1h4.2c.6,0,.6.1.5.6s-.3,1-.4,1.5a.7.7,0,0,1-.7.5h-4.5a3.3,3.3,0,0,0-3.2,2.8,1.8,1.8,0,0,0,1.8,2.1h4.5c.6,0,.6,0,.4.5s-.3,1.1-.4,1.7a.5.5,0,0,1-.6.4h-2.4Z"/><path class="cls-2" d="M248,47.3h-1.1c-.4,0-.5-.1-.4-.5l.9-2.8a2,2,0,0,0-.1-1.5c-.9-1.5-1.7-3.1-2.5-4.6s-.2-.7.4-.7h1.5a.9.9,0,0,1,.8.5c.5.9,1,1.9,1.6,2.8s.3.7.9.2l3.7-3.1a2.3,2.3,0,0,1,1-.4h2.8l-.2.4-6.1,5.2a3.3,3.3,0,0,0-.6,1l-.9,2.9c-.1.4-.3.5-.7.5Z"/><path class="cls-2" d="M140.3,37.2h5.2c.6,0,.6,0,.4.5s-.3,1.1-.4,1.6-.3.5-.7.5H142c-.8,0-1.1.1-1.3.9s-1.1,4-1.6,6-.3.6-.8.6h-1.4c-.4,0-.6-.1-.5-.6s.5-1.9.8-2.9l.9-3.1c.2-.7,0-.9-.7-.9h-3c-.4,0-.4-.1-.3-.5s.3-1.1.4-1.6.3-.5.6-.5Z"/><path class="cls-2" d="M212.1,47.3h-3.5a2.7,2.7,0,0,1-2.8-3.4c.5-2.2,1.1-4.2,1.7-6.3.1-.3.2-.4.5-.4h1.6c.5,0,.6.1.5.6s-.9,3-1.3,4.5l-.3,1.3c-.1.6.1,1,.7,1h7.1c.6,0,.6.1.5.6s-.3,1-.4,1.5-.3.5-.7.5Z"/><path class="cls-2" d="M323.3,37.2H327a7.6,7.6,0,0,1,1.6.3,1.6,1.6,0,0,1,1.1,1.5,5.1,5.1,0,0,1-.3,1.7l-.6,2.2a21.7,21.7,0,0,1-.7,2.4A3,3,0,0,1,326,47a5.8,5.8,0,0,1-1.9.3h-7a.8.8,0,0,1-.8-1c.3-.9.5-1.8.8-2.7l.9-3.1a25,25,0,0,1,.7-2.6c.1-.5.3-.7.8-.7Zm.2,2.6h-1.3c-.5.1-.7.3-.8.6a2.5,2.5,0,0,0-.2.7c-.2.8-.5,1.6-.7,2.4s-.1.5,0,.7.4.5.8.5h2.6c.7-.1,1.2-.4,1.3-1.1l.6-1.8a5,5,0,0,0,.2-1.2.5.5,0,0,0-.4-.6h-2.1Z"/><path class="cls-2" d="M279.2,37.2H281a2.9,2.9,0,0,1,2.6,1.6,2.5,2.5,0,0,1,.1,1.9c-.3,1-.5,2.1-.8,3.1a4.8,4.8,0,0,1-1,1.7,5.1,5.1,0,0,1-2.9,1.7h-4.6a3.1,3.1,0,0,1-2.1-.7,2.1,2.1,0,0,1-.8-1.7,4.1,4.1,0,0,1,.2-1.9l.6-2.1a5.1,5.1,0,0,1,1.5-2.3,5.9,5.9,0,0,1,1.7-1l1-.3Zm-.9,2.6h-1.7a1.9,1.9,0,0,0-1.8,1.5l-.6,2.2c-.1.6,0,1,.4,1.1h4.6a1.4,1.4,0,0,0,1.1-.9c.3-1,.5-2,.8-2.9a.8.8,0,0,0-1-1Z"/><path class="cls-2" d="M268.8,39.8h-2.5a2.9,2.9,0,0,0-1.8.7,3.4,3.4,0,0,0-1.1,1.8,1.8,1.8,0,0,0,1.4,2.3h5c.4,0,.4.1.3.4a13.3,13.3,0,0,1-.5,1.9c0,.2-.2.3-.4.3h-4.7a4,4,0,0,1-2.4-.7,3.3,3.3,0,0,1-1.4-2.2,5.5,5.5,0,0,1,.4-3.1,7.5,7.5,0,0,1,4.3-3.7,3.2,3.2,0,0,1,1.4-.3h5.1c.3,0,.4.2.3.5s-.3,1.2-.5,1.8-.2.3-.4.3Z"/><path class="cls-2" d="M312.1,37.2h5.4c.2,0,.3.1.2.4a5.2,5.2,0,0,1-.2,1.1,1.9,1.9,0,0,0-.2.7c-.1.3-.2.4-.5.4h-3.2c-.6,0-.9.3-1.1.9s-.6,2.1-.9,3.1-.5,2-.7,3-.3.5-.8.5h-1.5c-.3,0-.5-.1-.4-.5a28.1,28.1,0,0,0,.8-3.1l.9-3.1a.5.5,0,0,0,0-.5c0-.2-.1-.2-.3-.2h-3.5c-.3,0-.3-.1-.3-.3l.3-1.2a1.9,1.9,0,0,0,.2-.7c.1-.3.2-.4.5-.4Z"/><path class="cls-2" d="M298.7,47.3h-3.6a3.3,3.3,0,0,1-1.7-.4,2.7,2.7,0,0,1-1.2-2.6c.1-.6.3-1.2.4-1.8l.6-2.2c.3-.9.5-1.9.8-2.8a.3.3,0,0,1,.3-.3h2c.3,0,.4.2.3.4l-1.2,4.3c-.1.5-.3,1.1-.4,1.6s-.1,1,.5,1.1h7.4c.4,0,.5.1.4.5a5.6,5.6,0,0,1-.4,1.2.9.9,0,0,1-.1.5c-.1.3-.2.4-.6.4Z"/><path class="cls-2" d="M286.5,47.4h-.2c-.4,0-.6-.2-.5-.6s.1-.7.4-.9l.5-.2h.8c.2,0,.4.3.4.5a3,3,0,0,1-.8,1.6,2.7,2.7,0,0,1-.7.8c0,.1-.1.1-.2.1v-.2Z"/><path class="cls-2" d="M284.5,45.7h.3a.6.6,0,0,1,.5.6,1.4,1.4,0,0,1-.2.6.8.8,0,0,1-.8.5h-.7a.4.4,0,0,1-.4-.5,1.9,1.9,0,0,1,.2-.7.9.9,0,0,1,.8-.5Z"/><polygon class="cls-3" points="46.6 20 37.8 34.2 49.9 48.3 37.3 48.3 37.1 48.1 24.9 34.7 46.6 20 46.6 20"/><polygon class="cls-4" points="23.9 24.1 16.5 50.6 11.4 9.9 45.8 18.4 23.9 24.1 23.9 24.1"/></svg>